<?xml version="1.0" encoding="utf-8"?>
<!-- Generator: Adobe Illustrator 16.0.0, SVG Export Plug-In . SVG Version: 6.00 Build 0)  -->
<!DOCTYPE svg PUBLIC "-//W3C//DTD SVG 1.1//EN" "http://www.w3.org/Graphics/SVG/1.1/DTD/svg11.dtd">
<svg version="1.1" id="Layer_1" xmlns="http://www.w3.org/2000/svg" xmlns:xlink="http://www.w3.org/1999/xlink" x="0px" y="0px"
	 width="70px" height="54.892px" viewBox="-20 -11.893 70 54.892" enable-background="new -20 -11.893 70 54.892"
	 xml:space="preserve">
<path fill="#AFC4D6" d="M46.063,36.085c0,3.818-13.906,6.914-31.063,6.914c-17.156,0-31.064-3.096-31.064-6.914
	c0-2.719,7.054-5.071,17.311-6.201c2.207-0.243,3.521,3.982,5.987,3.861c2.166-0.107,5.456-0.16,7.765-0.16
	c2.092,0,5.498-2.959,7.474-2.872c1.418,0.063,1.441-1.26,2.782-1.155C37.374,30.5,46.063,33.066,46.063,36.085z"/>
<path fill="#002748" d="M47.376-4.893h-5.251c-0.777,0-1.475,0.338-1.955,0.875h-2.574l-3.404-3.97l-0.02-0.02
	c-2.159-2.469-5.279-3.885-8.561-3.885h-5.09c-1.942,0-3.817,0.541-5.435,1.533c-1.8-0.993-3.842-1.533-5.925-1.533H5.649
	c-3.161,0-6.3,1.227-8.662,3.588l-4.287,4.288h-2.87c-0.48-0.537-1.179-0.875-1.957-0.875h-5.25c-1.45,0-2.625,1.176-2.625,2.625
	v26.25c0,1.449,1.175,2.624,2.625,2.624h5.25c1.143,0,2.114-0.729,2.476-1.749h2.056l8.242,7.392
	c2.794,2.893,6.554,4.858,10.564,4.858c1.792,0,3.529-0.422,5.042-1.194c2.727,0.054,5.589-1.136,7.554-3.438
	c2.152-0.61,4.102-1.907,5.548-3.783c2.296-0.482,4.454-1.803,5.843-3.835h4.453c0.36,1.02,1.33,1.749,2.474,1.749h5.251
	c1.448,0,2.624-1.175,2.624-2.624v-26.25C50-3.717,48.824-4.893,47.376-4.893z M-14.75,23.107c-0.968,0-1.75-0.783-1.75-1.749
	c0-0.967,0.783-1.75,1.75-1.75c0.966,0,1.75,0.783,1.75,1.75C-13,22.324-13.784,23.107-14.75,23.107z M30.37,22.478
	c-1.68,1.563-4.034,1.239-4.37,0.875c0.153,1.464-1.997,4.487-5.369,4.253c-0.604,2.026-3.085,3.7-5.631,2.815
	c-0.971,0.973-2.457,1.437-3.788,1.437c-2.729,0-5.226-1.591-6.907-3.381l-8.892-7.975c-0.642-0.575-1.474-0.894-2.335-0.894H-9.5
	V1.232h2.926c0.927,0,1.817-0.368,2.473-1.025l4.8-4.799c1.312-1.312,3.092-2.05,4.95-2.05h3.512c0.634,0,1.259,0.086,1.859,0.251
	L6.288-0.869C3.711,2.137,3.681,6.527,6.216,9.569c3.543,4.251,9.995,4.291,13.616,0.218l2.841-3.291l7.923,10.486
	C32.065,18.579,31.794,21.152,30.37,22.478z M39.499,19.608h-2.674c0.011-2.217-0.744-4.302-2.162-5.951L26.124,2.356
	c0.493-1.04,0.254-2.322-0.659-3.112c-1.102-0.951-2.759-0.82-3.704,0.272l-5.865,6.794c-1.511,1.685-4.181,1.656-5.647-0.102
	C9.36,5.147,9.37,3.598,10.273,2.548l6.336-7.392c0.977-1.143,2.408-1.8,3.911-1.799h5.09c1.763,0,3.44,0.758,4.603,2.083
	l4.968,5.792h4.317V19.608z M44.75,23.107c-0.967,0-1.75-0.783-1.75-1.749c0-0.967,0.783-1.75,1.75-1.75s1.751,0.783,1.751,1.75
	C46.501,22.324,45.717,23.107,44.75,23.107z"/>
<path fill="#004986" d="M47.376-4.893h-5.251c-0.777,0-1.475,0.338-1.955,0.875h-2.574l-3.404-3.97l-0.02-0.02
	c-2.159-2.469-5.279-3.885-8.561-3.885h-5.09c-1.942,0-3.817,0.541-5.435,1.533c-1.902,1.53-2.492,2.427-4.131,3.956
	C10.976-6.399,11-6.397,11.021-6.392L6.288-0.869C3.711,2.137,3.681,6.527,6.216,9.569c3.543,4.251,9.995,4.291,13.616,0.218
	l2.841-3.291c1.026-1.032,1.485-1.499,1.875-1.974c0.059-0.073,0.116-0.146,0.18-0.227c0.009-0.014,0.021-0.027,0.032-0.041
	c0.308-0.407,0.686-0.948,1.364-1.898c0.493-1.04,0.254-2.322-0.659-3.112c-1.102-0.951-2.759-0.82-3.704,0.272l-5.865,6.794
	c-1.511,1.685-4.181,1.656-5.647-0.102C9.36,5.147,9.37,3.598,10.273,2.548l6.336-7.392c0.977-1.143,2.408-1.8,3.911-1.799h5.09
	c1.763,0,3.44,0.758,4.603,2.083l4.968,5.792h4.317v18.376h-2.534c0.561,2.007-1.046,3.32-1.529,5.25h4.216
	c0.36,1.02,1.33,1.749,2.474,1.749h5.251c1.448,0,2.624-1.175,2.624-2.624v-26.25C50-3.717,48.824-4.893,47.376-4.893z
	 M44.75,23.107c-0.967,0-1.75-0.783-1.75-1.749c0-0.967,0.783-1.75,1.75-1.75s1.751,0.783,1.751,1.75
	C46.501,22.324,45.717,23.107,44.75,23.107z"/>
</svg>
