<?xml version="1.0" encoding="utf-8"?>
<!-- Generator: Adobe Illustrator 16.0.0, SVG Export Plug-In . SVG Version: 6.00 Build 0)  -->
<!DOCTYPE svg PUBLIC "-//W3C//DTD SVG 1.1//EN" "http://www.w3.org/Graphics/SVG/1.1/DTD/svg11.dtd">
<svg version="1.1" id="Layer_1" xmlns="http://www.w3.org/2000/svg" xmlns:xlink="http://www.w3.org/1999/xlink" x="0px" y="0px"
	 width="88.5px" height="55.855px" viewBox="-34.333 -18.855 88.5 55.855" enable-background="new -34.333 -18.855 88.5 55.855"
	 xml:space="preserve">
<polygon fill="#AFC4D6" points="54.167,37 -18.693,37 -34.333,16.769 -15.34,16.769 -15.341,24.153 30.647,24.153 30.585,16.769 
	38.527,16.769 "/>
<path fill="#002748" d="M27.492-1.521v3.214C26.49,3.144,19.468,5.84,6.938,5.84c-13.125,0-20.483-2.857-21.522-4.393v-2.969H27.492
	z M31.7-5.729h-50.493v7.345c0,5.59,12.947,8.434,25.73,8.434c12.46,0,24.763-2.702,24.763-8.195V-5.729z M27.492,11.258v10.363
	h-42.077V11.1c-1.732-0.708-3.109-1.496-4.208-2.307v17.037H31.7V9.104C30.474,9.951,29.046,10.664,27.492,11.258z M10.662,15.377
	c0,2.287-1.886,4.141-4.208,4.141c-2.323,0-4.208-1.854-4.208-4.141v-2.172h8.416V15.377z M0.142-16.249
	c-2.322,0-4.208,1.885-4.208,4.208v4.208h4.208v-3.156c0-0.58,0.472-1.052,1.052-1.052h10.52c0.579,0,1.052,0.472,1.052,1.052v3.156
	h4.208v-4.208c0-2.323-1.887-4.208-4.208-4.208H0.142z"/>
<g>
	<defs>
		<rect id="SVGID_1_" x="-7.026" y="-18.855" width="25.321" height="12.102"/>
	</defs>
	<clipPath id="SVGID_2_">
		<use xlink:href="#SVGID_1_"  overflow="visible"/>
	</clipPath>
	<path clip-path="url(#SVGID_2_)" fill="#004986" d="M27.492-1.521v3.214C26.49,3.144,19.468,5.84,6.938,5.84
		c-13.125,0-20.483-2.857-21.522-4.393v-2.969H27.492z M31.7-5.729h-50.493v7.345c0,5.59,12.947,8.434,25.73,8.434
		c12.46,0,24.763-2.702,24.763-8.195V-5.729z M27.492,11.258v10.363h-42.077V11.1c-1.732-0.708-3.109-1.496-4.208-2.307v17.037H31.7
		V9.104C30.474,9.951,29.046,10.664,27.492,11.258z M10.662,15.377c0,2.287-1.886,4.141-4.208,4.141
		c-2.323,0-4.208-1.854-4.208-4.141v-2.172h8.416V15.377z M0.142-16.249c-2.322,0-4.208,1.885-4.208,4.208v4.208h4.208v-3.156
		c0-0.58,0.472-1.052,1.052-1.052h10.52c0.579,0,1.052,0.472,1.052,1.052v3.156h4.208v-4.208c0-2.323-1.887-4.208-4.208-4.208H0.142
		z"/>
</g>
<g>
	<defs>
		<rect id="SVGID_3_" x="-0.509" y="11.493" width="13.219" height="8.937"/>
	</defs>
	<clipPath id="SVGID_4_">
		<use xlink:href="#SVGID_3_"  overflow="visible"/>
	</clipPath>
	<path clip-path="url(#SVGID_4_)" fill="#004986" d="M27.492-1.521v3.214C26.49,3.144,19.468,5.84,6.938,5.84
		c-13.125,0-20.483-2.857-21.522-4.393v-2.969H27.492z M31.7-5.729h-50.493v7.345c0,5.59,12.947,8.434,25.73,8.434
		c12.46,0,24.763-2.702,24.763-8.195V-5.729z M27.492,11.258v10.363h-42.077V11.1c-1.732-0.708-3.109-1.496-4.208-2.307v17.037H31.7
		V9.104C30.474,9.951,29.046,10.664,27.492,11.258z M10.662,15.377c0,2.287-1.886,4.141-4.208,4.141
		c-2.323,0-4.208-1.854-4.208-4.141v-2.172h8.416V15.377z M0.142-16.249c-2.322,0-4.208,1.885-4.208,4.208v4.208h4.208v-3.156
		c0-0.58,0.472-1.052,1.052-1.052h10.52c0.579,0,1.052,0.472,1.052,1.052v3.156h4.208v-4.208c0-2.323-1.887-4.208-4.208-4.208H0.142
		z"/>
</g>
</svg>
