<?xml version="1.0" encoding="utf-8"?>
<!-- Generator: Adobe Illustrator 16.0.0, SVG Export Plug-In . SVG Version: 6.00 Build 0)  -->
<!DOCTYPE svg PUBLIC "-//W3C//DTD SVG 1.1//EN" "http://www.w3.org/Graphics/SVG/1.1/DTD/svg11.dtd">
<svg version="1.1" id="Layer_1" xmlns="http://www.w3.org/2000/svg" xmlns:xlink="http://www.w3.org/1999/xlink" x="0px" y="0px"
	 width="59.62px" height="56.438px" viewBox="-40.109 -35.375 59.62 56.438" enable-background="new -40.109 -35.375 59.62 56.438"
	 xml:space="preserve">
<path fill="#AFC4D6" d="M19.511,13.8c0,4.011-13.347,7.263-29.81,7.263c-16.464,0-29.811-3.252-29.811-7.263
	c0-3.1,7.738-5.724,18.96-6.765c1.228-0.114,2.402,3.108,3.774,2.855c2.465-0.457,4.764,1.168,7.11,1.168
	c2.316,0,5.665,0.034,7.821-1.168c1.292-0.721,1.971-2.949,3.198-2.836C12.019,8.092,19.511,10.693,19.511,13.8z"/>
<path fill="#002748" d="M-10.299-35.375c-13.313,0-24.106,10.793-24.106,24.105c0,13.312,10.793,24.105,24.106,24.105
	c13.312,0,24.104-10.792,24.104-24.105C13.806-24.582,3.013-35.375-10.299-35.375z M-10.299,9.822c-2.966,0-5.786-0.611-8.344-1.717
	L-7.666-4.243c0.244-0.277,0.38-0.632,0.38-1v-4.52c0-0.831-0.677-1.507-1.507-1.507c-5.319,0-10.932-5.528-10.986-5.586
	c-0.285-0.285-0.667-0.439-1.067-0.439h-6.026c-0.831,0-1.506,0.675-1.506,1.506v9.039c0,0.571,0.323,1.095,0.831,1.348l5.195,2.596
	v8.848c-5.463-3.811-9.04-10.143-9.04-17.312c0-3.236,0.73-6.3,2.03-9.039h5.503c0.4,0,0.783-0.161,1.067-0.439l6.026-6.027
	c0.284-0.283,0.44-0.666,0.44-1.067v-3.646c1.91-0.569,3.933-0.874,6.027-0.874c3.312,0,6.449,0.765,9.239,2.127
	c-0.194,0.165-0.382,0.337-0.565,0.519c-1.707,1.708-2.648,3.979-2.648,6.392c0,2.412,0.941,4.686,2.648,6.39
	c1.716,1.714,4.013,2.649,6.385,2.649c0.147,0,0.3-0.003,0.447-0.011c0.654,2.438,1.825,8.789-0.394,17.528
	C4.793,3.313,4.78,3.399,4.776,3.479C0.947,7.392-4.391,9.818-10.297,9.818L-10.299,9.822z"/>
<g>
	<defs>
		<circle id="SVGID_1_" cx="-10.266" cy="-11.236" r="21.126"/>
	</defs>
	<clipPath id="SVGID_2_">
		<use xlink:href="#SVGID_1_"  overflow="visible"/>
	</clipPath>
	<path clip-path="url(#SVGID_2_)" fill="#004986" d="M-10.299-35.376c-13.313,0-24.106,10.793-24.106,24.106
		c0,13.311,10.793,24.105,24.106,24.105c13.312,0,24.104-10.794,24.104-24.105C13.806-24.583,3.013-35.376-10.299-35.376z
		 M-10.299,9.82c-2.966,0-5.786-0.609-8.344-1.717L-7.666-4.244c0.244-0.276,0.38-0.631,0.38-0.999v-4.52
		c0-0.832-0.678-1.507-1.507-1.507c-5.319,0-10.932-5.528-10.986-5.587c-0.285-0.285-0.667-0.44-1.067-0.44h-6.026
		c-0.831,0-1.506,0.676-1.506,1.507v9.038c0,0.572,0.323,1.095,0.831,1.349l5.195,2.597V6.04c-5.463-3.809-9.04-10.141-9.04-17.31
		c0-3.236,0.73-6.3,2.03-9.039h5.503c0.4,0,0.783-0.161,1.067-0.441l6.026-6.025c0.284-0.284,0.44-0.666,0.44-1.066v-3.646
		c1.91-0.569,3.933-0.874,6.027-0.874c3.312,0,6.449,0.765,9.239,2.126c-0.195,0.165-0.382,0.338-0.565,0.519
		c-1.706,1.708-2.648,3.979-2.648,6.39c0,2.413,0.942,4.687,2.648,6.391c1.716,1.714,4.013,2.649,6.385,2.649
		c0.147,0,0.3-0.004,0.447-0.011c0.654,2.438,1.825,8.789-0.394,17.528C4.793,3.313,4.78,3.399,4.776,3.479
		C0.948,7.392-4.391,9.816-10.297,9.816L-10.299,9.82z"/>
</g>
</svg>
